# xmcd
#
# Track frame offsets:
#	150
#	34444
#	65002
#	95162
#	132550
#	156698
#	183408
#	216143
#	236513
#
# Disc length: 3470 seconds
#
# Revision: 0
# Processed by: cddbd v1.4PL0 Copyright (c) Steve Scherf et al.
# Submitted via: audiograbber 1.81.03
#
DISCID=8f0d8c09
DTITLE=Johnny Winter - Live In N.Y.C. '97
DYEAR=1997
DGENRE=
TTITLE0=Hideaway
TTITLE1=Sen-Sa-Shun/Got My Mojo Working
TTITLE2=She Likes To Boogie Real Low
TTITLE3=Black Jack
TTITLE4=Just A Little Bit
TTITLE5=The Sun Is Shining
TTITLE6=The Sky Is Crying
TTITLE7=Johnny Guitar
TTITLE8=Drop The Bomb
EXTD=
EXTT0=
EXTT1=
EXTT2=
EXTT3=
EXTT4=
EXTT5=
EXTT6=
EXTT7=
EXTT8=
PLAYORDER=
